<svg xmlns="http://www.w3.org/2000/svg" width="746" height="264" viewBox="0 0 746 264">
  <defs>
    <style>
      .cls-1 {
        fill: #FFFFFF;
        fill-rule: evenodd;
      }
    </style>
  </defs>
  <path id="Y" class="cls-1" d="M65.483,4.383l-14.983,28L35.9,4.1a5.572,5.572,0,0,0-5.3-3.285H3.354a2.612,2.612,0,0,0-2,.928,2.859,2.859,0,0,0-.84,1.928A4.451,4.451,0,0,0,.9,5.525L33.321,65.088V96.94a3.9,3.9,0,0,0,1.033,2.714,3.2,3.2,0,0,0,2.454,1.142H64.321a3.2,3.2,0,0,0,2.454-1.142,3.91,3.91,0,0,0,1.033-2.714V65.088l32.55-59.562a4.441,4.441,0,0,0,.388-1.857,2.87,2.87,0,0,0-.84-1.928,2.615,2.615,0,0,0-2-.928h-27q-3.488,0-5.425,3.571h0Z"/>
  <path id="U" class="cls-1" d="M204.982,58.49V4.619a3.835,3.835,0,0,0-1.033-2.678A3.225,3.225,0,0,0,201.5.812h-27a3.225,3.225,0,0,0-2.454,1.123A3.8,3.8,0,0,0,171.011,4.6V60.445q0,5.755-3.552,8.84t-9.623,3.087q-6.072,0-9.623-3.087t-3.552-8.84V4.6a3.812,3.812,0,0,0-1.033-2.667A3.233,3.233,0,0,0,141.174.812h-27a3.217,3.217,0,0,0-2.454,1.129,3.827,3.827,0,0,0-1.034,2.678V58.49q0,21.86,12.723,32.153t34.423,10.3q21.7,0,34.423-10.3T204.982,58.49h0Z"/>
  <path id="S" class="cls-1" d="M272.148,38.04q-10.076-1.242-13.434-2.415t-3.358-3.24q0-3.863,8.654-3.863,6.2,0,9.3,2.968a5.564,5.564,0,0,0,4,1.62h27.771a3.038,3.038,0,0,0,2.261-.85,3.085,3.085,0,0,0,.839-2.265q0-10.485-12.142-19.905T264.2,0.669q-19.7,0-31.452,8.76T221,32.394q0,25.245,36.554,29.933,11.494,1.379,15.371,2.828t3.875,3.932q0,4-12.271,4-8.913,0-12.529-3.647a5.808,5.808,0,0,0-4.392-1.757H221.127q-2.973,0-2.971,3.113,0,12.738,11.948,21.441t33.519,8.7q21.57,0,34.616-8.827t13.046-23.037q0-14.208-8.977-21.311t-30.16-9.724h0Z"/>
  <path id="U-2" data-name="U" class="cls-1" d="M419.4,58.49V4.619a3.835,3.835,0,0,0-1.033-2.678A3.223,3.223,0,0,0,415.909.812h-27a3.227,3.227,0,0,0-2.454,1.123A3.8,3.8,0,0,0,385.426,4.6V60.445q0,5.755-3.552,8.84t-9.623,3.087q-6.073,0-9.623-3.087t-3.552-8.84V4.6a3.809,3.809,0,0,0-1.034-2.667A3.231,3.231,0,0,0,355.588.812h-27a3.219,3.219,0,0,0-2.454,1.129,3.826,3.826,0,0,0-1.033,2.678V58.49q0,21.86,12.723,32.153t34.423,10.3q21.7,0,34.423-10.3T419.4,58.49h0Z"/>
  <path id="P" class="cls-1" d="M441.87,1.955a3.909,3.909,0,0,0-1.033,2.714V96.94a3.9,3.9,0,0,0,1.033,2.714,3.2,3.2,0,0,0,2.454,1.142H472.1a3.2,3.2,0,0,0,2.454-1.142,3.907,3.907,0,0,0,1.034-2.714V69.515h17.05q21.7,0,30.741-9.07t9.042-24.5q0-15.426-10.721-25.282T492.633,0.812H444.324A3.2,3.2,0,0,0,441.87,1.955Zm50.246,25.425a5.93,5.93,0,0,1,4.908,2.285,9.158,9.158,0,0,1,1.809,5.856,7.836,7.836,0,0,1-1.873,5.571,6.333,6.333,0,0,1-4.844,2h-16.4V27.379h16.4Z"/>
  <path id="O" class="cls-1" d="M621.346,11.114Q607.978,0.669,586.665.669T551.984,11.114q-13.37,10.445-13.369,31.473V59.022q0,14.623,6.458,24.233A35.347,35.347,0,0,0,561.994,96.9q10.462,4.037,24.671,4.037T611.336,96.9a35.356,35.356,0,0,0,16.921-13.647q6.456-9.608,6.458-23.956V42.31Q634.715,21.561,621.346,11.114Zm-44.3,20.379q3.55-2.969,9.623-2.971t9.623,3.04q3.55,3.04,3.552,8.575V61.472q0,5.537-3.552,8.577t-9.623,3.037q-6.073,0-9.623-2.971t-3.552-8.508V40Q573.49,34.463,577.042,31.492Z"/>
  <path id="V" class="cls-1" d="M708.726,5.525L693.872,60.231,679.018,5.525a7.784,7.784,0,0,0-2-3.214,5.135,5.135,0,0,0-3.811-1.5H645.951a2.612,2.612,0,0,0-2,.928,2.727,2.727,0,0,0-.839,1.785,6.557,6.557,0,0,0,.129,1.428l29.966,91.557q1.421,4.285,5.684,4.285h30.1q4.389,0,5.812-4.713L744.505,4.954a6.677,6.677,0,0,0,.13-1.428,2.738,2.738,0,0,0-.84-1.785,2.615,2.615,0,0,0-2-.928H714.539q-4.65,0-5.813,4.714h0Z"/>
  <path id="S-2" data-name="S" class="cls-1" d="M82.547,174.924q-14.107-1.739-18.81-3.381t-4.7-4.537q0-5.41,12.118-5.41,8.681,0,13.022,4.157a7.793,7.793,0,0,0,5.607,2.268h38.886a4.255,4.255,0,0,0,3.165-1.19,4.323,4.323,0,0,0,1.175-3.172q0-14.682-17-27.872T71.424,122.6q-27.583,0-44.04,12.266T10.926,167.018q0,35.349,51.184,41.913,16.1,1.93,21.523,3.959t5.426,5.506q0,5.6-17.182,5.6Q59.4,224,54.333,218.89a8.13,8.13,0,0,0-6.149-2.459H11.107q-4.163,0-4.16,4.359,0,17.837,16.73,30.022T70.61,263q30.2,0,48.471-12.359t18.267-32.256q0-19.895-12.57-29.841T82.547,174.924h0Z"/>
  <path id="P-2" data-name="P" class="cls-1" d="M170.082,124.4a5.476,5.476,0,0,0-1.447,3.8V257.4a5.462,5.462,0,0,0,1.447,3.8,4.474,4.474,0,0,0,3.437,1.6H212.4a4.481,4.481,0,0,0,3.436-1.6,5.471,5.471,0,0,0,1.447-3.8V219h23.874q30.384,0,43.045-12.7t12.66-34.3q0-21.6-15.011-35.4t-40.694-13.8H173.519A4.487,4.487,0,0,0,170.082,124.4ZM240.437,160a8.307,8.307,0,0,1,6.873,3.2,12.826,12.826,0,0,1,2.532,8.2q0,5-2.622,7.8a8.868,8.868,0,0,1-6.783,2.8H217.468V160h22.969Z"/>
  <path id="A" class="cls-1" d="M352.221,256.016l20.8-75.03,20.8,75.03a10.647,10.647,0,0,0,2.8,4.408,7.271,7.271,0,0,0,5.336,2.057h38.161a4.244,4.244,0,0,0,3.979-3.723,8.809,8.809,0,0,0-.181-1.959L401.958,131.227q-1.989-5.877-7.958-5.877H351.859q-6.147,0-8.139,6.465L302.122,256.8a8.992,8.992,0,0,0-.181,1.959,4.247,4.247,0,0,0,3.979,3.723h38.162q6.512,0,8.139-6.465h0Z"/>
  <path id="C" class="cls-1" d="M511.274,165.756q4.973-4.158,13.022-4.16t11.666,2.647A20.1,20.1,0,0,1,542.021,172q2.441,5.1,6.42,5.1h39.066a3.684,3.684,0,0,0,2.8-1.278,4.358,4.358,0,0,0,1.175-3.05q0-18.3-15.916-33.45-7.961-7.476-21.16-12.1a89.406,89.406,0,0,0-29.662-4.625q-40.694,0-58.056,25.35-9.225,13.65-9.224,33.344V204.3q0,19.7,9.224,33.246a52,52,0,0,0,23.964,19.5A86.476,86.476,0,0,0,523.3,263q17.905,0,31.109-4.622t21.16-12.1q15.913-15.15,15.916-33.453a4.358,4.358,0,0,0-1.175-3.047,3.687,3.687,0,0,0-2.8-1.281H548.441q-3.98,0-6.42,5.106a20.042,20.042,0,0,1-6.059,7.753Q532.341,224,524.3,224t-13.022-4.159q-4.977-4.158-4.974-11.913V177.668Q506.3,169.914,511.274,165.756Z"/>
  <path id="E" class="cls-1" d="M659.488,211.2H719.9a4.483,4.483,0,0,0,3.437-1.6,5.475,5.475,0,0,0,1.446-3.8v-26a5.489,5.489,0,0,0-1.446-3.8,4.5,4.5,0,0,0-3.437-1.6H659.488V161.8h70.356a4.482,4.482,0,0,0,3.436-1.6,5.471,5.471,0,0,0,1.447-3.8V128.2a5.485,5.485,0,0,0-1.447-3.8,4.5,4.5,0,0,0-3.436-1.6h-112.5a4.487,4.487,0,0,0-3.437,1.6,5.476,5.476,0,0,0-1.447,3.8V257.4a5.462,5.462,0,0,0,1.447,3.8,4.474,4.474,0,0,0,3.437,1.6h114.3a4.479,4.479,0,0,0,3.436-1.6,5.471,5.471,0,0,0,1.447-3.8V229.2a5.485,5.485,0,0,0-1.447-3.8,4.493,4.493,0,0,0-3.436-1.6H659.488V211.2Z"/>
</svg>
